<svg width="126" height="181" viewBox="0 0 126 181" fill="none" xmlns="http://www.w3.org/2000/svg">
<path d="M0 0H126V134.983L63 181L0 134.983V0Z" fill="white"/>
<g clip-path="url(#clip0_136_60)">
<path d="M42.9009 130.826L11.1546 107.395V35.4585H42.9009V130.826ZM24.3994 100.715L29.6046 104.569V48.664H24.3994V100.715Z" fill="#052677"/>
<path d="M96.55 120.036V66.6996H101.755V116.079L115 106.059V35.4071H83.2537V130.055L96.55 120.036ZM96.55 48.664H101.755V53.4941H96.55V48.664Z" fill="#052677"/>
<path d="M82.1199 135.964C82.1715 136.375 82.1715 136.787 82.1715 137.198C82.1715 147.68 73.668 156.158 63.1546 156.158C52.6412 156.158 44.1378 147.68 44.1378 137.198C44.1378 136.838 44.1893 136.53 44.1893 136.17L11 111.249V127.692L62.8969 167L115 127.692V111.249L82.1199 135.964Z" fill="#E6224B"/>
<path d="M47.1784 127.024C50.0644 122.502 54.8573 119.265 60.4232 118.494V83.7075H47.1784V127.024Z" fill="#052677"/>
<path d="M47.1784 35.4071V79.9565H65.6283V118.443C71.1427 119.162 75.884 122.194 78.8731 126.561V66.6996H60.4232V48.664H65.5768V62.6403H78.8216V48.664V43.6284V35.4071H47.1784Z" fill="#052677"/>
<path d="M47.8999 137.557C47.8999 137.198 47.7968 132.111 50.8375 128.771C50.9921 128.462 51.6105 127.281 53.672 125.842C54.5996 125.123 55.5788 124.506 56.558 123.941C56.661 123.889 59.1863 122.553 62.227 122.553C62.4331 122.553 62.6908 122.553 62.8969 122.605C65.2161 122.553 67.5352 123.17 68.9267 123.787C70.1635 124.352 71.5035 125.277 71.6065 125.328C73.3072 126.304 76.554 130.107 76.8117 132.111C77.8424 133.447 78.7185 139.356 76.8117 142.953C75.4718 147.988 70.4727 150.455 70.0605 150.66C69.8028 150.814 67.0714 152.51 63.7215 152.51C63.5669 152.51 62.7423 152.561 62.4331 152.561C58.8256 152.561 53.4143 149.992 52.2805 147.988C49.2398 145.727 47.6422 139.921 47.8999 137.557ZM70.0605 145.111C71.5035 142.798 72.328 139.767 72.4827 139.047C72.0188 138.379 69.8028 135.04 68.5144 134.063C67.7929 134.217 64.7522 134.731 61.9177 135.245C61.557 136.17 60.0109 140.281 59.5471 141.822C60.0624 142.387 61.9693 144.7 63.9276 146.447C65.9376 146.498 69.442 145.316 70.0605 145.111ZM51.9713 128.822C51.9713 129.028 52.0228 129.85 52.4351 130.775C53.2081 130.364 55.115 129.541 57.7433 129.439C58.1556 128.873 59.6501 126.818 62.0208 125.379C61.7116 124.763 61.2478 123.992 60.9901 123.735C60.887 123.735 60.7839 123.684 60.5778 123.684C59.2894 123.684 57.1249 124.506 56.9187 124.609C56.7126 124.711 52.7443 126.818 51.9713 128.822ZM73.1011 138.585C74.8018 138.277 75.8325 137.763 76.1417 137.557C76.7602 135.245 76.2448 132.727 76.1933 132.419C75.5748 131.289 73.7711 128.411 72.5857 127.897C71.3489 127.64 69.8543 127.949 69.1843 128.103C69.2359 128.925 69.3389 131.186 69.0297 133.549C70.3697 134.577 72.5342 137.711 73.1011 138.585ZM63.1031 123.324C62.7423 123.375 62.1754 123.427 61.7631 123.53C62.1239 124.043 62.5362 124.814 62.7423 125.174C63.5154 125.328 66.5045 125.893 68.8751 127.383C69.3389 127.281 70.782 126.921 72.1219 127.024C71.7611 126.356 71.2973 125.893 71.2458 125.842C71.0396 125.739 67.4321 123.273 63.1031 123.324ZM53.5173 142.387C54.0842 142.387 56.3518 142.233 58.8256 141.668C59.2894 140.024 60.887 135.964 61.2478 135.04C60.114 133.395 58.9286 131.802 57.7948 130.209C54.9604 130.364 52.9504 131.391 52.5382 131.597C50.889 134.269 50.5282 136.941 50.4767 137.403C51.3528 140.126 53.0535 141.925 53.5173 142.387ZM77.1724 135.81C77.1209 136.427 77.0178 137.095 76.8632 137.763C77.0178 138.174 77.1209 138.636 77.224 139.099C77.2755 138.02 77.2755 136.889 77.1724 135.81ZM72.328 147.474C71.555 146.755 70.6273 146.036 70.2666 145.779C69.442 146.087 66.0922 147.217 63.9276 147.217C63.5669 147.68 62.3816 149.221 60.887 150.403C61.8147 151.277 63.1031 151.688 63.3608 151.79C67.4836 151.893 71.4519 149.581 72.328 147.474ZM61.557 151.79C61.0932 151.534 60.6293 151.174 60.217 150.711C59.5471 150.609 56.7641 150.146 54.2388 148.296C54.0842 148.296 53.775 148.348 53.4658 148.348C55.0119 149.787 58.7225 151.431 61.557 151.79ZM53.8266 147.577C52.8989 145.213 52.9504 143.466 53.002 142.901C52.4866 142.439 50.7859 140.589 49.8583 137.866C49.3429 137.968 49.0337 138.071 48.8791 138.174C48.8276 138.379 48.7245 138.842 48.776 139.561C49.1368 142.079 50.4767 145.881 52.8474 147.526C53.0535 147.577 53.4658 147.577 53.8266 147.577Z" fill="#052677"/>
<path d="M62.9485 154.308C72.225 154.308 79.7493 146.806 79.7493 137.557C79.7493 128.308 72.225 120.806 62.9485 120.806C53.672 120.806 46.1477 128.308 46.1477 137.557C46.1477 146.806 53.672 154.308 62.9485 154.308ZM62.9485 123.735C70.5758 123.735 76.8117 129.953 76.8117 137.557C76.8117 145.162 70.5758 151.379 62.9485 151.379C55.3211 151.379 49.0852 145.162 49.0852 137.557C49.0852 129.953 55.2696 123.735 62.9485 123.735Z" fill="#052677"/>
<path d="M115 11H11V30.5257H115V11Z" fill="#052677"/>
<path d="M15.1744 17.8854C15.1744 16.3439 15.999 15.4704 17.442 15.4704C18.9366 15.4704 19.7096 16.3439 19.7096 17.8854V22.8696C19.7096 24.4111 18.885 25.2846 17.442 25.2846C15.9475 25.2846 15.1744 24.4111 15.1744 22.8696V17.8854ZM16.669 22.921C16.669 23.5889 16.9782 23.8459 17.442 23.8459C17.9058 23.8459 18.2151 23.5889 18.2151 22.921V17.7826C18.2151 17.1146 17.9058 16.8577 17.442 16.8577C16.9782 16.8577 16.669 17.1146 16.669 17.7826V22.921Z" fill="white"/>
<path d="M25.1724 17.9368V19.2213C25.1724 20.7629 24.4509 21.585 22.9049 21.585H22.1834V25.1818H20.6888V15.6245H22.9049C24.3994 15.6245 25.1724 16.4466 25.1724 17.9368ZM22.1834 16.9605V20.1976H22.9049C23.3687 20.1976 23.6264 19.9921 23.6264 19.2727V17.834C23.6264 17.166 23.3687 16.9091 22.9049 16.9091H22.1834V16.9605Z" fill="white"/>
<path d="M27.44 19.6324H29.5015V21.0198H27.44V23.7945H30.0168V25.1818H25.894V15.6245H30.0168V17.0119H27.44V19.6324Z" fill="white"/>
<path d="M32.2844 18.2451V25.1304H30.9445V15.6245H32.8513L34.3974 21.3281V15.6245H35.7374V25.1818H34.1913L32.2844 18.2451Z" fill="white"/>
<path d="M40.9425 15.4704C42.3855 15.4704 43.1586 16.3439 43.1586 17.8854V18.1937H41.7156V17.7826C41.7156 17.1146 41.4579 16.8577 40.9425 16.8577C40.4272 16.8577 40.1695 17.1146 40.1695 17.7826C40.1695 19.7352 43.107 20.0949 43.107 22.8182C43.107 24.3597 42.334 25.2332 40.8394 25.2332C39.3449 25.2332 38.6234 24.3597 38.6234 22.8182V22.253H40.0664V22.921C40.0664 23.5889 40.3756 23.8459 40.8394 23.8459C41.3033 23.8459 41.6125 23.5889 41.6125 22.921C41.6125 20.9684 38.6749 20.6087 38.6749 17.8854C38.7265 16.3439 39.4995 15.4704 40.9425 15.4704Z" fill="white"/>
<path d="M43.9316 17.8854C43.9316 16.3439 44.7562 15.4704 46.1992 15.4704C47.6938 15.4704 48.4668 16.3439 48.4668 17.8854V22.8696C48.4668 24.4111 47.6422 25.2846 46.1992 25.2846C44.7047 25.2846 43.9316 24.4111 43.9316 22.8696V17.8854ZM45.4262 22.921C45.4262 23.5889 45.7354 23.8459 46.1992 23.8459C46.663 23.8459 46.9723 23.5889 46.9723 22.921V17.7826C46.9723 17.1146 46.663 16.8577 46.1992 16.8577C45.7354 16.8577 45.4262 17.1146 45.4262 17.7826V22.921Z" fill="white"/>
<path d="M53.8266 21.585V22.8696C53.8266 24.4111 53.0535 25.2846 51.6105 25.2846C50.1675 25.2846 49.3429 24.4111 49.3429 22.8696V17.8854C49.3429 16.3439 50.116 15.4704 51.6105 15.4704C53.1051 15.4704 53.8266 16.3439 53.8266 17.8854V18.8103H52.3835V17.7826C52.3835 17.1146 52.0743 16.8577 51.6105 16.8577C51.1467 16.8577 50.8375 17.1146 50.8375 17.7826V22.921C50.8375 23.5889 51.1467 23.8459 51.6105 23.8459C52.0743 23.8459 52.3835 23.5889 52.3835 22.921V21.5336H53.8266V21.585Z" fill="white"/>
<path d="M59.0833 21.585V22.8696C59.0833 24.4111 58.3102 25.2846 56.8672 25.2846C55.4242 25.2846 54.5996 24.4111 54.5996 22.8696V17.8854C54.5996 16.3439 55.3726 15.4704 56.8672 15.4704C58.3617 15.4704 59.0833 16.3439 59.0833 17.8854V18.8103H57.6402V17.7826C57.6402 17.1146 57.331 16.8577 56.8672 16.8577C56.4034 16.8577 56.0942 17.1146 56.0942 17.7826V22.921C56.0942 23.5889 56.4034 23.8459 56.8672 23.8459C57.331 23.8459 57.6402 23.5889 57.6402 22.921V21.5336H59.0833V21.585Z" fill="white"/>
<path d="M61.5055 19.6324H63.5669V21.0198H61.5055V23.7945H64.0823V25.1818H59.9594V15.6245H64.0823V17.0119H61.5055V19.6324Z" fill="white"/>
<path d="M68.2052 25.1304C68.1021 24.8735 68.0505 24.7194 68.0505 23.9486V22.4585C68.0505 21.585 67.7413 21.2253 67.0714 21.2253H66.556V25.1304H65.0614V15.6245H67.329C68.8751 15.6245 69.5451 16.3439 69.5451 17.834V18.6047C69.5451 19.581 69.2359 20.249 68.5659 20.5573C69.3389 20.8656 69.5451 21.585 69.5451 22.6127V24.1028C69.5451 24.5652 69.5451 24.9249 69.6997 25.2846H68.2052V25.1304ZM66.556 16.9605V19.8893H67.1229C67.6898 19.8893 68.0505 19.6324 68.0505 18.8617V17.9368C68.0505 17.2688 67.7929 16.9605 67.2775 16.9605H66.556Z" fill="white"/>
<path d="M77.5332 25.1304H76.0387L75.781 23.3834H73.9257L73.668 25.1304H72.2765L73.8226 15.5731H76.0387L77.5332 25.1304ZM74.0803 22.0988H75.5233L74.8018 17.2688L74.0803 22.0988Z" fill="white"/>
<path d="M78.2547 15.6245H79.7493V23.7945H82.223V25.1818H78.2547V15.6245Z" fill="white"/>
<path d="M82.893 15.6245H84.3875V23.7945H86.8612V25.1818H82.893V15.6245Z" fill="white"/>
<path d="M87.5312 15.6245H89.0258V25.1818H87.5312V15.6245Z" fill="white"/>
<path d="M94.9524 25.1304H93.4579L93.2002 23.3834H91.3449L91.0872 25.1304H89.6957L91.2418 15.5731H93.4579L94.9524 25.1304ZM91.551 22.0988H92.9941L92.2725 17.2688L91.551 22.0988Z" fill="white"/>
<path d="M97.0139 18.2451V25.1304H95.6739V15.6245H97.5808L99.1269 21.3281V15.6245H100.467V25.1818H98.9207L97.0139 18.2451Z" fill="white"/>
<path d="M105.878 21.585V22.8696C105.878 24.4111 105.105 25.2846 103.662 25.2846C102.219 25.2846 101.394 24.4111 101.394 22.8696V17.8854C101.394 16.3439 102.167 15.4704 103.662 15.4704C105.157 15.4704 105.878 16.3439 105.878 17.8854V18.8103H104.435V17.7826C104.435 17.1146 104.126 16.8577 103.662 16.8577C103.198 16.8577 102.889 17.1146 102.889 17.7826V22.921C102.889 23.5889 103.198 23.8459 103.662 23.8459C104.126 23.8459 104.435 23.5889 104.435 22.921V21.5336H105.878V21.585Z" fill="white"/>
<path d="M108.3 19.6324H110.362V21.0198H108.3V23.7945H110.877V25.1818H106.754V15.6245H110.877V17.0119H108.3V19.6324Z" fill="white"/>
</g>
<defs>
<clipPath id="clip0_136_60">
<rect width="104" height="156" fill="white" transform="translate(11 11)"/>
</clipPath>
</defs>
</svg>
